<?xml version="1.0" encoding="UTF-8"?>
<svg id="Layer_2" data-name="Layer 2" xmlns="http://www.w3.org/2000/svg" viewBox="0 0 850 1000">
  <defs>
    <style>
      .cls-1 {
        fill: #007994;
      }

      .cls-2 {
        fill: #fc9732;
        font-family: Sansita-Bold, Sansita;
        font-size: 72px;
        font-weight: 700;
      }

      .cls-3 {
        fill: #e0fcff;
      }
    </style>
  </defs>
  <g id="Layer_1-2" data-name="Layer 1">
    <rect class="cls-3" width="850" height="1000"/>
    <path class="cls-1" d="m600.45,122.56c-10.36,0-18.75,8.39-18.75,18.75v62.5c0,10.36,8.39,18.75,18.75,18.75h62.37c3.21,0,6.14-2.61,6.36-5.8.25-3.66-2.63-6.7-6.23-6.7v-12.5c3.46,0,6.25-2.79,6.25-6.25v-62.5c0-3.45-2.8-6.25-6.25-6.25h-62.5Zm.13,75h49.87v12.5h-50c-3.6,0-6.49-3.04-6.23-6.7.22-3.2,3.16-5.8,6.36-5.8Zm9.35-50h37.35c1.52,0,2.87,1.05,3.15,2.54.36,1.97-1.16,3.71-3.07,3.71h-37.5c-1.91,0-3.43-1.74-3.07-3.71.28-1.49,1.63-2.54,3.15-2.54Zm-.08,12.5h37.42c1.52,0,2.87,1.05,3.15,2.54.36,1.97-1.16,3.71-3.07,3.71h-37.42c-1.52,0-2.87-1.05-3.15-2.54-.36-1.97,1.16-3.71,3.07-3.71Z"/>
    <path class="cls-1" d="m227.8,761.77c-4.32-4.32-11.31-4.32-15.63,0l-5.94,5.92,19.32,19.32,5.94-5.94c4.32-4.32,4.32-11.31,0-15.63l-3.69-3.67Zm-59.05,43.42c-1.2,1.2-2.13,2.68-2.66,4.32l-5.84,17.53c-.57,1.7-.12,3.57,1.14,4.86s3.14,1.72,4.86,1.14l17.53-5.84c1.62-.53,3.1-1.46,4.32-2.66l33.02-33.04-19.34-19.34-33.02,33.04Zm-27.63-35.08c-3.57,0-6.46,2.89-6.46,6.46v63.01c0,10.46,8.48,18.95,18.95,18.95h63.01c3.57,0,6.46-2.89,6.46-6.46v-33.62c0-.51-.3-1.23-.67-1.59-5.48-5.28-11.96-1.52-11.96,3.77v18.95c0,3.49-2.83,6.32-6.32,6.32h-50.53c-3.49,0-6.32-2.83-6.32-6.32v-54.69c0-1.19.96-2.15,2.15-2.15h25.29c.51,0,1.23-.3,1.59-.67,5.28-5.48,1.52-11.96-3.77-11.96h-31.43Z"/>
    <text class="cls-2" transform="translate(543.15 805.76) scale(1.23 1)"><tspan x="0" y="0">For</tspan><tspan x="-70.74" y="86.4">Schools</tspan></text>
  </g>
</svg>