<?xml version="1.0" encoding="UTF-8"?>
<svg id="Layer_2" data-name="Layer 2" xmlns="http://www.w3.org/2000/svg" viewBox="0 0 307.5 218.56">
  <defs>
    <style>
      .cls-1 {
        fill: #007994;
      }
    </style>
  </defs>
  <g id="Layer_1-2" data-name="Layer 1">
    <g>
      <path class="cls-1" d="m164.47,120.8v-25.92h-59.45c-2.77,0-5.02-.79-6.68-2.34-1.68-1.57-2.54-3.66-2.54-6.22,0-2.9,1.67-6.4,5.11-10.7L165,0h27.46v79.56h19.9l-1.79,15.32h-18.11v25.92h-28Zm0-41.24V28.92l-43.06,50.64h43.06Z"/>
      <path class="cls-1" d="m191.47,80.56h19.78l-1.56,13.32h-18.22v25.92h-26v-25.92h-60.45c-2.52,0-4.52-.69-6-2.07-1.48-1.38-2.22-3.21-2.22-5.49,0-2.64,1.63-6,4.89-10.08L165.47,1h26v79.56Zm-26-54.36l-46.23,54.36h46.23V26.2Z"/>
      <path class="cls-1" d="m21.05,218.56c-5.92,0-10.91-.99-14.82-2.95-4.13-2.07-6.23-5.34-6.23-9.73,0-2.21.81-4.04,2.42-5.44,1.56-1.36,3.65-2.04,6.19-2.04s4.43.49,5.74,1.48l.62.47-.31.72c-.4.94-.61,2.15-.61,3.6,0,4.5,2.51,6.6,7.89,6.6,2.67,0,4.87-.6,6.53-1.78,1.58-1.12,2.34-2.59,2.34-4.5,0-1.55-.48-2.92-1.47-4.19-1.05-1.35-2.38-2.57-3.96-3.62-1.64-1.1-3.93-2.45-6.79-4.04-3.44-1.87-6.25-3.58-8.34-5.06-2.16-1.53-4.02-3.38-5.52-5.52-1.56-2.21-2.36-4.79-2.36-7.66,0-4.61,2.03-8.25,6.04-10.8,3.87-2.47,8.82-3.72,14.71-3.72s10.55.92,14.13,2.75c3.8,1.94,5.73,5.09,5.73,9.37,0,2.21-.81,4.04-2.42,5.44-1.56,1.36-3.68,2.04-6.29,2.04s-4.43-.49-5.74-1.49l-.63-.48.33-.72c.47-1.04.7-2.25.7-3.59,0-4.12-2.13-6.04-6.71-6.04-2.28,0-4.07.44-5.31,1.3-1.14.79-1.69,1.95-1.69,3.54s.48,2.92,1.47,4.19c1.05,1.35,2.38,2.57,3.96,3.62,1.65,1.1,3.94,2.46,6.79,4.04,3.44,1.88,6.25,3.58,8.34,5.06,2.16,1.53,4.02,3.38,5.52,5.52,1.56,2.22,2.36,4.79,2.36,7.66,0,5.08-2.18,9.08-6.48,11.88-4.16,2.71-9.6,4.08-16.15,4.08Z"/>
      <path class="cls-1" d="m36.8,164.04c3.46,1.76,5.19,4.59,5.19,8.48,0,1.92-.69,3.48-2.07,4.68-1.38,1.2-3.26,1.8-5.63,1.8s-4.02-.43-5.14-1.28c.53-1.17.79-2.51.79-4,0-4.69-2.57-7.04-7.71-7.04-2.5,0-4.46.49-5.88,1.48-1.42.99-2.12,2.44-2.12,4.36,0,1.76.56,3.36,1.68,4.8,1.12,1.44,2.52,2.72,4.2,3.84,1.68,1.12,3.97,2.48,6.86,4.08,3.42,1.87,6.17,3.53,8.25,5,2.07,1.47,3.83,3.23,5.28,5.28,1.45,2.05,2.17,4.41,2.17,7.08,0,4.75-2.01,8.43-6.03,11.04-4.02,2.61-9.22,3.92-15.61,3.92-5.8,0-10.59-.95-14.37-2.84-3.79-1.89-5.68-4.84-5.68-8.84,0-1.92.69-3.48,2.07-4.68,1.38-1.2,3.23-1.8,5.53-1.8s4.02.43,5.14,1.28c-.46,1.07-.69,2.4-.69,4,0,5.07,2.96,7.6,8.89,7.6,2.9,0,5.27-.65,7.11-1.96,1.84-1.31,2.77-3.08,2.77-5.32,0-1.76-.56-3.36-1.68-4.8-1.12-1.44-2.52-2.72-4.2-3.84-1.68-1.12-3.97-2.48-6.86-4.08-3.42-1.87-6.17-3.53-8.25-5-2.07-1.47-3.84-3.23-5.28-5.28-1.45-2.05-2.17-4.41-2.17-7.08,0-4.27,1.86-7.59,5.58-9.96,3.72-2.37,8.44-3.56,14.17-3.56s10.22.88,13.68,2.64Z"/>
      <path class="cls-1" d="m70.14,218.56c-7.5,0-13.17-2.03-16.84-6.04-3.65-3.98-5.5-9.39-5.5-16.07,0-7.1,2-12.94,5.93-17.35,3.97-4.44,9.98-6.69,17.88-6.69,4.62,0,8.49.79,11.52,2.35,3.24,1.67,4.89,4.29,4.89,7.77,0,2.15-.84,3.83-2.5,4.98-1.55,1.07-3.63,1.62-6.2,1.62-.79,0-1.61-.09-2.43-.26-.87-.18-1.57-.43-2.12-.75l-.75-.44.33-.81c.47-1.15.71-2.24.71-3.22,0-3.13-1.52-4.52-4.93-4.52-5.97,0-8.88,5.38-8.88,16.44,0,4.57.71,8.27,2.11,11.03,1.31,2.57,3.84,3.81,7.75,3.81,2.7,0,5.03-.58,6.94-1.74,1.88-1.13,3.11-2.69,3.76-4.77l.32-1.01.99.38c1.29.49,2.21,1.07,2.81,1.75.66.75.99,1.74.99,2.94,0,2.2-.89,4.15-2.63,5.81-1.65,1.57-3.79,2.77-6.36,3.59-2.53.8-5.15,1.21-7.81,1.21Z"/>
      <path class="cls-1" d="m60.26,195.56c0,4.75.74,8.57,2.22,11.48,1.48,2.91,4.36,4.36,8.64,4.36,2.9,0,5.38-.63,7.46-1.88,2.07-1.25,3.47-3.03,4.2-5.32,1.12.43,1.93.92,2.42,1.48.49.56.74,1.32.74,2.28,0,1.92-.77,3.61-2.32,5.08-1.55,1.47-3.54,2.59-5.98,3.36-2.44.77-4.94,1.16-7.51,1.16-7.24,0-12.61-1.91-16.1-5.72-3.49-3.81-5.24-8.95-5.24-15.4,0-6.88,1.89-12.44,5.68-16.68,3.79-4.24,9.5-6.36,17.14-6.36,4.48,0,8.17.75,11.06,2.24,2.9,1.49,4.35,3.79,4.35,6.88,0,1.81-.69,3.2-2.07,4.16s-3.26,1.44-5.63,1.44c-.73,0-1.47-.08-2.22-.24-.76-.16-1.37-.37-1.83-.64.53-1.28.79-2.48.79-3.6,0-3.68-1.98-5.52-5.93-5.52-6.58,0-9.88,5.81-9.88,17.44Z"/>
      <path class="cls-1" d="m132.66,218c-2.82,0-4.98-.68-6.41-2.03-1.45-1.36-2.19-3.28-2.19-5.69v-20.72c0-3.17-.42-5.54-1.26-7.03-.73-1.31-2.5-1.97-5.25-1.97-3.63,0-5.96,1.22-7.14,3.74-1.28,2.73-1.93,6.33-1.93,10.7v21.8h-12.87v-57.92l12.87-1.14v10.13c0,3.6-.13,6.65-.39,9.11,1.09-1.06,2.36-1.95,3.79-2.65,2.63-1.29,5.73-1.94,9.23-1.94,5.81,0,9.95,1.37,12.31,4.06,2.33,2.66,3.51,6.69,3.51,11.98v20.8c0,2.23.78,3.62,2.47,4.37l1.08.48-.65.99c-.65.98-1.68,1.73-3.06,2.23-1.29.46-2.67.7-4.09.7Z"/>
      <path class="cls-1" d="m107.48,167.88c0,5.81-.33,10.08-.99,12.8,1.38-2.4,3.32-4.21,5.83-5.44,2.5-1.23,5.43-1.84,8.79-1.84,5.53,0,9.38,1.24,11.56,3.72s3.26,6.25,3.26,11.32v20.8c0,2.61,1.02,4.37,3.06,5.28-.53.8-1.38,1.41-2.57,1.84-1.19.43-2.44.64-3.75.64-2.57,0-4.48-.59-5.73-1.76-1.25-1.17-1.88-2.83-1.88-4.96v-20.72c0-3.36-.46-5.87-1.38-7.52-.92-1.65-2.96-2.48-6.12-2.48-4.02,0-6.7,1.44-8.05,4.32-1.35,2.88-2.02,6.59-2.02,11.12v20.8h-10.87v-56l10.87-.96v9.04Z"/>
      <path class="cls-1" d="m167.04,218.56c-7.77,0-13.56-2.08-17.19-6.18-3.61-4.06-5.44-9.7-5.44-16.74s1.88-12.46,5.58-16.73c3.74-4.32,9.48-6.51,17.05-6.51s13.39,2.06,17.13,6.12c3.71,4.04,5.6,9.53,5.6,16.32,0,7.19-1.81,13-5.37,17.24-3.61,4.3-9.45,6.48-17.36,6.48Zm0-39.36c-5.91,0-8.78,5.25-8.78,16.04,0,5.03.59,9.17,1.76,12.29,1.07,2.85,3.36,4.23,7.01,4.23s5.97-1.39,7.07-4.24c1.2-3.13,1.81-7.26,1.81-12.28,0-4.59-.66-8.53-1.95-11.7-1.19-2.92-3.46-4.34-6.93-4.34Z"/>
      <path class="cls-1" d="m183.43,179.2c3.56,3.87,5.33,9.08,5.33,15.64,0,6.99-1.71,12.52-5.14,16.6-3.42,4.08-8.96,6.12-16.59,6.12s-12.99-1.95-16.45-5.84c-3.46-3.89-5.19-9.25-5.19-16.08s1.78-11.97,5.33-16.08c3.56-4.11,8.99-6.16,16.3-6.16s12.84,1.93,16.4,5.8Zm-8.4,28.68c1.25-3.25,1.88-7.47,1.88-12.64,0-4.75-.68-8.77-2.02-12.08-1.35-3.31-3.97-4.96-7.85-4.96-6.52,0-9.78,5.68-9.78,17.04,0,5.17.61,9.39,1.83,12.64,1.22,3.25,3.87,4.88,7.95,4.88s6.75-1.63,8-4.88Z"/>
      <path class="cls-1" d="m216.72,218.56c-7.77,0-13.56-2.08-17.19-6.18-3.61-4.06-5.44-9.7-5.44-16.74s1.88-12.46,5.58-16.73c3.74-4.32,9.48-6.51,17.05-6.51s13.39,2.06,17.13,6.12c3.71,4.04,5.6,9.53,5.6,16.32,0,7.19-1.81,13-5.37,17.24-3.61,4.3-9.45,6.48-17.36,6.48Zm0-39.36c-5.91,0-8.78,5.25-8.78,16.04,0,5.03.59,9.17,1.76,12.29,1.07,2.85,3.36,4.23,7.01,4.23s5.97-1.39,7.07-4.24c1.2-3.13,1.81-7.26,1.81-12.28,0-4.59-.66-8.53-1.95-11.7-1.19-2.92-3.46-4.34-6.93-4.34Z"/>
      <path class="cls-1" d="m233.11,179.2c3.56,3.87,5.33,9.08,5.33,15.64,0,6.99-1.71,12.52-5.14,16.6-3.42,4.08-8.96,6.12-16.59,6.12s-12.99-1.95-16.45-5.84c-3.46-3.89-5.19-9.25-5.19-16.08s1.78-11.97,5.33-16.08c3.56-4.11,8.99-6.16,16.3-6.16s12.84,1.93,16.4,5.8Zm-8.4,28.68c1.25-3.25,1.88-7.47,1.88-12.64,0-4.75-.68-8.77-2.02-12.08-1.35-3.31-3.97-4.96-7.85-4.96-6.52,0-9.78,5.68-9.78,17.04,0,5.17.61,9.39,1.83,12.64,1.22,3.25,3.87,4.88,7.95,4.88s6.75-1.63,8-4.88Z"/>
      <path class="cls-1" d="m255.83,218c-2.75,0-4.88-.68-6.31-2.03-1.45-1.36-2.19-3.28-2.19-5.69v-51.4l12.87-1.14v51.49c0,2.23.78,3.62,2.47,4.37l1.08.48-.65.99c-.65.98-1.7,1.73-3.12,2.23-1.32.46-2.71.7-4.13.7Z"/>
      <path class="cls-1" d="m259.19,158.84v50.4c0,2.61,1.02,4.37,3.06,5.28-.53.8-1.4,1.41-2.62,1.84-1.22.43-2.49.64-3.8.64-2.5,0-4.38-.59-5.63-1.76-1.25-1.17-1.88-2.83-1.88-4.96v-50.48l10.87-.96Z"/>
      <path class="cls-1" d="m287.44,218.56c-4.91,0-9.11-.7-12.48-2.07-3.66-1.49-5.51-4.04-5.51-7.57,0-2.15.84-3.83,2.5-4.98,1.55-1.07,3.63-1.62,6.2-1.62,1.92,0,3.39.34,4.49,1.04l.71.45-.32.78c-.47,1.15-.71,2.23-.71,3.22,0,1.39.51,2.45,1.57,3.24,1.13.85,2.73,1.28,4.74,1.28,2.19,0,3.86-.45,4.95-1.34,1.05-.85,1.56-2.1,1.56-3.82s-.73-3.16-2.22-4.28c-1.68-1.25-4.32-2.68-7.85-4.25-2.92-1.34-5.29-2.54-7.06-3.57-1.84-1.07-3.45-2.46-4.77-4.12-1.39-1.75-2.09-3.88-2.09-6.34,0-3.95,1.97-7.03,5.85-9.16,3.69-2.02,8.2-3.04,13.42-3.04,4.8,0,8.81.72,11.92,2.13,3.37,1.53,5.08,4.08,5.08,7.59,0,2.16-.86,3.83-2.56,4.99-1.58,1.07-3.68,1.61-6.24,1.61-1.93,0-3.4-.34-4.49-1.04l-.7-.45.32-.77c.47-1.15.71-2.24.71-3.22,0-1.48-.43-2.58-1.3-3.38-.89-.81-2.28-1.22-4.12-1.22s-3.16.36-4.17,1.06c-.92.64-1.35,1.51-1.35,2.74,0,1.76.73,3.16,2.22,4.28,1.67,1.25,4.31,2.68,7.85,4.25,2.92,1.29,5.29,2.46,7.06,3.49,1.85,1.07,3.45,2.46,4.78,4.12,1.39,1.75,2.09,3.88,2.09,6.34,0,4.41-1.97,7.84-5.86,10.21-3.73,2.27-8.51,3.43-14.2,3.43Z"/>
      <path class="cls-1" d="m284.28,178.88c-1.19.83-1.78,2.01-1.78,3.56,0,2.08.87,3.77,2.62,5.08,1.74,1.31,4.43,2.76,8.05,4.36,2.9,1.28,5.22,2.43,6.96,3.44,1.74,1.01,3.24,2.31,4.49,3.88,1.25,1.57,1.88,3.48,1.88,5.72,0,4.05-1.79,7.17-5.38,9.36-3.59,2.19-8.15,3.28-13.68,3.28-4.81,0-8.84-.67-12.1-2-3.26-1.33-4.89-3.55-4.89-6.64,0-1.81.69-3.2,2.07-4.16s3.26-1.44,5.63-1.44c1.71,0,3.03.29,3.95.88-.53,1.28-.79,2.48-.79,3.6,0,1.71.66,3.05,1.98,4.04,1.32.99,3.09,1.48,5.33,1.48,2.44,0,4.3-.52,5.58-1.56,1.29-1.04,1.93-2.57,1.93-4.6s-.87-3.77-2.62-5.08c-1.75-1.31-4.43-2.76-8.05-4.36-2.9-1.33-5.22-2.51-6.96-3.52-1.75-1.01-3.24-2.31-4.49-3.88-1.25-1.57-1.88-3.48-1.88-5.72,0-3.57,1.78-6.33,5.33-8.28,3.56-1.95,7.87-2.92,12.94-2.92,4.68,0,8.51.68,11.51,2.04,2.99,1.36,4.49,3.59,4.49,6.68,0,1.81-.71,3.2-2.12,4.16s-3.31,1.44-5.68,1.44c-1.71,0-3.03-.29-3.95-.88.53-1.28.79-2.48.79-3.6,0-1.76-.54-3.13-1.63-4.12-1.09-.99-2.68-1.48-4.79-1.48-1.98,0-3.56.41-4.74,1.24Z"/>
    </g>
  </g>
</svg>