<?xml version="1.0" encoding="UTF-8"?>
<svg id="Layer_2" data-name="Layer 2" xmlns="http://www.w3.org/2000/svg" viewBox="0 0 850 1000">
  <defs>
    <style>
      .cls-1 {
        fill: #007994;
      }

      .cls-2 {
        fill: #fc9732;
        font-family: Sansita-Bold, Sansita;
        font-size: 72px;
        font-weight: 700;
      }

      .cls-3 {
        fill: #e0fcff;
      }
    </style>
  </defs>
  <g id="Layer_1-2" data-name="Layer 1">
    <rect class="cls-3" width="850" height="1000"/>
    <path class="cls-1" d="m669.45,82.56c-18.64,0-33.75,15.11-33.75,33.75v112.5c0,18.64,15.11,33.75,33.75,33.75h112.27c5.77,0,11.05-4.69,11.45-10.45.46-6.59-4.73-12.05-11.22-12.05v-22.5c6.22,0,11.25-5.03,11.25-11.25v-112.5c0-6.21-5.04-11.25-11.25-11.25h-112.5Zm.23,135h89.77v22.5h-90c-6.49,0-11.68-5.47-11.22-12.05.4-5.76,5.68-10.45,11.45-10.45Zm16.82-90h67.23c2.73,0,5.17,1.89,5.66,4.57.66,3.55-2.09,6.68-5.53,6.68h-67.5c-3.44,0-6.18-3.13-5.53-6.68.5-2.68,2.94-4.57,5.66-4.57Zm-.14,22.5h67.36c2.73,0,5.17,1.89,5.66,4.57.66,3.55-2.09,6.68-5.53,6.68h-67.36c-2.73,0-5.17-1.89-5.66-4.57-.66-3.55,2.09-6.68,5.53-6.68Z"/>
    <path class="cls-1" d="m240.29,760.36c-7.78-7.78-20.36-7.78-28.14,0l-10.69,10.66,34.78,34.78,10.69-10.69c7.78-7.78,7.78-20.36,0-28.14l-6.64-6.61Zm-106.29,78.16c-2.17,2.17-3.84,4.83-4.8,7.78l-10.52,31.55c-1.03,3.06-.21,6.43,2.06,8.74s5.65,3.09,8.74,2.06l31.55-10.52c2.91-.96,5.58-2.63,7.78-4.8l59.44-59.47-34.82-34.82-59.44,59.47Zm-49.73-63.15c-6.43,0-11.63,5.21-11.63,11.63v113.42c0,18.84,15.27,34.11,34.11,34.11h113.42c6.43,0,11.63-5.21,11.63-11.63v-60.51c0-.93-.54-2.21-1.21-2.85-9.86-9.5-21.53-2.74-21.53,6.79v34.11c0,6.28-5.09,11.37-11.37,11.37h-90.95c-6.28,0-11.37-5.09-11.37-11.37v-98.44c0-2.14,1.74-3.88,3.88-3.88h45.53c.93,0,2.21-.54,2.85-1.21,9.5-9.86,2.74-21.53-6.79-21.53h-56.58Z"/>
    <text class="cls-2" transform="translate(618.15 833.76) scale(1.23 1)"><tspan x="0" y="0">For</tspan><tspan x="-70.74" y="86.4">Schools</tspan></text>
  </g>
</svg>